<svg width="790" height="533" viewBox="0 0 790 533" fill="none" xmlns="http://www.w3.org/2000/svg">
<path fill-rule="evenodd" clip-rule="evenodd" d="M866.195 118.551C829.337 153.758 795.395 157.071 774.154 157.071C664.469 157.072 591.474 8.3021e-05 435.829 0.000130057C299.496 0.000171257 263.578 104.515 253.729 121.9C243.881 139.286 205.646 249.144 179.576 273.049C153.507 296.957 61.0933 360.789 20.2627 446.835C9.79628 468.897 0.565748 508.784 0.565748 527.569L866.195 527.568L866.195 118.551Z" fill="#E4EDF9"/>
<path fill-rule="evenodd" clip-rule="evenodd" d="M152.845 311.922C170.082 297.41 184.561 286.131 192.872 278.605L187.906 278.605L187.906 268.513L195.433 268.513L195.433 276.127C196.229 275.292 197.036 274.38 197.851 273.401L198.121 222.647L160.585 222.647L160.585 283.517L152.845 283.517L152.845 311.922ZM170.252 278.605L162.725 278.605L162.725 268.513L170.252 268.513L170.252 278.605ZM170.252 260.616L162.725 260.616L162.725 250.524L170.252 250.524L170.252 260.616ZM170.252 242.626L162.725 242.626L162.725 232.535L170.252 232.535L170.252 242.626ZM195.433 242.626L187.906 242.626L187.906 232.535L195.433 232.535L195.433 242.626Z" fill="#4785D1"/>
<path fill-rule="evenodd" clip-rule="evenodd" d="M82.4158 437.298L232.541 437.298C233.534 436.095 239.667 428.865 250.392 420.707C244.556 413.162 241.065 403.589 241.065 393.174C241.065 384.885 243.278 377.127 247.121 370.504L225.466 370.504L225.466 365.828L250.245 365.828C258.051 355.625 270.124 349.078 283.676 349.078C289.145 349.078 294.37 350.141 299.175 352.083L295.927 347.739L295.927 335.473C295.927 333.275 297.205 331.268 299.186 330.465C299.943 330.157 300.681 329.778 301.395 329.33L301.395 325.945L305.424 325.945C309.409 321.672 312.681 315.266 315.338 308.099L315.338 305.637L316.218 305.637C323.247 285.226 325.619 260.119 325.619 260.119L345.026 260.119C341.778 269.247 339.051 281.625 336.811 294.678L336.811 295.426L336.684 295.426C334.95 305.621 333.509 316.201 332.35 325.945L336.811 325.945L336.811 336.037L331.207 336.037C329.408 352.823 328.562 365.185 328.562 365.185L329.315 366.56L336.811 366.56L336.811 375.88L352.376 375.88C352.731 375.676 353.063 375.46 353.368 375.225L355.469 375.232L353.789 333.754L364.341 336.544L364.445 375.604C364.518 375.684 364.588 375.78 364.646 375.88L376.166 375.88C376.522 375.676 376.854 375.46 377.159 375.225L378.538 375.228L375.151 337.591L387.575 336.544L387.676 375.276C387.981 375.332 388.251 375.556 388.436 375.88L393.388 375.88C431.754 373.754 433.075 346.22 426.903 327.963C420.728 309.71 413.1 305.35 413.1 305.35C413.1 305.35 507.195 316.996 520.009 320.601L525.118 320.601L525.118 323.403C530.009 327.567 532.982 334.909 534.642 340.497C535.762 344.27 533.06 348.099 529.246 348.159L525.118 348.223L525.118 352.131L501.305 352.131C511.393 356.244 519.6 364.221 524.219 374.305L525.118 374.305L525.118 376.412C527.172 381.579 528.305 387.239 528.305 393.174C528.305 417.526 509.227 437.27 485.693 437.27C483.306 437.27 480.97 437.066 478.691 436.678C478.606 436.95 478.525 437.166 478.475 437.298L508.923 437.298C521.89 426.862 530.177 424.132 535.303 424.132C540.947 424.132 542.757 427.446 542.757 427.446C542.757 427.446 545.893 417.102 579.409 413.049C582.974 412.618 585.907 412.426 588.306 412.426C608.459 412.426 590.776 426.027 590.776 426.027C591.401 426.019 592 426.019 592.583 426.019C596.723 426.019 599.846 426.183 602.136 426.479C605.034 422.022 609.278 417.322 615.226 414.652C617.171 413.777 619.033 413.405 620.798 413.405C631.449 413.405 638.528 427.05 638.528 427.05C641.521 417.154 647.193 414.784 651.942 414.784C656.308 414.784 659.893 416.79 659.893 416.79C667.051 400.867 674.076 396.203 679.853 396.203C688.037 396.203 693.716 405.568 693.716 405.568C694.253 405.508 694.767 405.48 695.261 405.48C705.922 405.48 706.69 418.661 706.69 418.661L698.952 437.298L753.436 437.298L753.436 400.052L731.378 400.052L731.378 370.82L709.32 370.82L709.32 385.236L699.259 385.236L699.259 345.988L664.431 345.988L664.431 366.416L654.756 366.416L654.756 210.583L540.211 209.452L540.211 278.652L535.954 278.711L530.536 278.711L530.536 218.984L522.797 218.984L522.797 201.718L511.574 201.718L511.574 151.328L495.321 151.328L495.321 201.718L484.098 201.718L484.098 218.984L476.358 218.984L476.358 273.308L467.074 273.308L467.074 141.064L462.041 141.064L462.041 123.333L447.45 123.333C447.261 129.685 445.403 147.255 430.65 147.255C430.646 147.255 430.646 147.255 430.642 147.255C430.642 147.255 430.534 147.259 430.341 147.259C429.707 147.259 428.139 147.183 426.343 146.532C425.78 146.384 424.061 145.84 422.253 144.433L426.536 151.819L414.564 162.71C414.564 162.71 413.888 161.451 412.895 159.621L412.895 225.083L398.188 224.68L398.188 170.924L356.396 170.924L354.519 271.977L348.27 271.573L348.27 237.465L334.726 237.465L334.726 210.635L326.6 210.635L326.6 192.614L294.865 192.614L294.865 210.635L286.739 210.635L286.739 237.465L273.194 237.465L273.194 300.43L261.584 300.03L261.584 237.581L222.778 237.581L222.778 296.333L197.732 296.021L197.851 273.404C197.036 274.383 196.229 275.294 195.434 276.13L195.434 278.608L192.873 278.608C184.562 286.133 170.083 297.412 152.846 311.924L152.846 379.629L146.655 379.629L146.655 395.648L140.464 395.648L140.464 374.825L112.212 374.825L112.212 395.648L104.472 395.648L104.472 385.236L82.4158 385.236L82.4158 437.298ZM585.749 369.061L572.195 369.062L572.195 350.892L585.749 350.892L585.749 369.061ZM624.478 369.061L610.924 369.061L610.924 350.892L624.478 350.892L624.478 369.061ZM182.843 350.573L175.316 350.573L175.316 340.481L182.843 340.481L182.843 350.573ZM195.434 350.573L187.906 350.573L187.906 340.481L195.434 340.481L195.434 350.573ZM259.248 350.321L225.466 350.321L225.466 345.645L259.248 345.645L259.248 350.321ZM568.709 338.027L555.154 338.027L555.154 319.858L568.709 319.858L568.709 338.027ZM603.651 338.027L590.096 338.027L590.096 319.858L603.651 319.858L603.651 338.027ZM294.984 336.037L287.453 336.037L287.453 325.945L294.984 325.945L294.984 336.037ZM170.253 332.579L162.725 332.579L162.725 322.488L170.253 322.488L170.253 332.579ZM259.248 330.133L225.466 330.133L225.466 325.461L259.248 325.461L259.248 330.133ZM170.253 314.59L162.725 314.59L162.725 304.498L170.253 304.498L170.253 314.59ZM182.843 314.59L175.316 314.59L175.316 304.498L182.843 304.498L182.843 314.59ZM525.118 311.852L483.549 311.852L483.549 307.176L525.118 307.176L525.118 311.852ZM259.248 309.95L225.466 309.95L225.466 305.274L259.248 305.274L259.248 309.95ZM394.604 308.883L360.822 308.883L360.822 304.207L394.604 304.207L394.604 308.883ZM585.749 298.483L572.195 298.483L572.195 280.314L585.749 280.314L585.749 298.483ZM624.478 298.483L610.924 298.483L610.924 280.314L624.478 280.314L624.478 298.483ZM645.305 298.483L631.751 298.483L631.751 280.314L645.305 280.314L645.305 298.483ZM195.434 296.601L187.906 296.601L187.906 286.509L195.434 286.509L195.434 296.601ZM294.984 295.426L287.453 295.426L287.453 285.334L294.984 285.334L294.984 295.426ZM308.927 295.426L301.395 295.426L301.395 285.334L308.927 285.334L308.927 295.426ZM394.604 288.695L360.822 288.695L360.822 284.023L394.604 284.023L394.604 288.695ZM525.118 284.998L483.549 284.998L483.549 280.322L525.118 280.322L525.118 284.998ZM458.805 284.591L451.277 284.591L451.277 274.499L458.805 274.499L458.805 284.591ZM259.248 279.675L225.466 279.675L225.466 274.999L259.248 274.999L259.248 279.675ZM322.869 275.118L315.338 275.118L315.338 265.027L322.869 265.027L322.869 275.118ZM624.478 269.035L610.924 269.035L610.924 250.866L624.478 250.866L624.478 269.035ZM259.248 259.487L225.466 259.487L225.466 254.811L259.248 254.811L259.248 259.487ZM394.604 258.42L360.822 258.42L360.822 253.744L394.604 253.744L394.604 258.42ZM525.118 258.148L483.549 258.148L483.549 253.472L525.118 253.472L525.118 258.148ZM294.984 254.811L287.453 254.811L287.453 244.719L294.984 244.719L294.984 254.811ZM336.811 254.811L329.28 254.811L329.28 244.719L336.811 244.719L336.811 254.811ZM259.248 249.396L225.466 249.396L225.466 244.719L259.248 244.719L259.248 249.396ZM427.479 248.964L419.952 248.964L419.952 238.872L427.479 238.872L427.479 248.964ZM525.118 244.719L483.549 244.719L483.549 240.043L525.118 240.043L525.118 244.719ZM568.709 240.043L555.154 240.043L555.154 221.878L568.709 221.878L568.709 240.043ZM603.651 240.043L590.096 240.043L590.096 221.878L603.651 221.878L603.651 240.043ZM624.478 240.043L610.924 240.043L610.924 221.878L624.478 221.878L624.478 240.043ZM645.305 240.043L631.751 240.043L631.751 221.878L645.305 221.878L645.305 240.043ZM525.118 231.294L483.549 231.294L483.549 226.618L525.118 226.618L525.118 231.294ZM443.144 231.154L435.613 231.154L435.613 221.059L443.144 221.059L443.144 231.154ZM458.805 231.154L451.277 231.154L451.277 221.059L458.805 221.059L458.805 231.154ZM394.604 228.145L360.822 228.145L360.822 223.469L394.604 223.469L394.604 228.145ZM300.279 227.397L292.752 227.397L292.752 217.306L300.279 217.306L300.279 227.397ZM316.454 227.397L308.927 227.397L308.927 217.306L316.454 217.306L316.454 227.397ZM394.604 218.049L360.822 218.049L360.822 213.373L394.604 213.373L394.604 218.049ZM427.479 213.341L419.952 213.341L419.952 203.249L427.479 203.249L427.479 213.341ZM458.805 213.341L451.277 213.341L451.277 203.249L458.805 203.249L458.805 213.341ZM394.604 197.866L360.822 197.866L360.822 193.189L394.604 193.189L394.604 197.866ZM427.479 195.528L419.952 195.528L419.952 185.436L427.479 185.436L427.479 195.528ZM443.144 195.528L435.613 195.528L435.613 185.436L443.144 185.436L443.144 195.528ZM394.604 187.774L360.822 187.774L360.822 183.098L394.604 183.098L394.604 187.774ZM427.479 177.714L419.952 177.714L419.952 167.622L427.479 167.622L427.479 177.714ZM458.805 177.714L451.277 177.714L451.277 167.622L458.805 167.622L458.805 177.714ZM443.144 159.905L435.613 159.905L435.613 149.809L443.144 149.809L443.144 159.905ZM458.805 159.905L451.277 159.905L451.277 149.809L458.805 149.809L458.805 159.905ZM326.422 437.298L382.898 437.298L346.903 437.026C346.903 437.026 366.608 425.28 375.946 425.28C377.982 425.28 379.527 425.839 380.264 427.202C380.264 427.202 393.735 424.316 402.746 424.316C411.374 424.316 415.908 426.958 400.633 437.298L453.749 437.298C457.063 434.304 459.886 431.91 462.281 430.024C450.714 422.138 443.082 408.577 443.082 393.174C443.082 390.06 443.395 387.019 443.986 384.089C437.93 389.009 432.14 389.441 430.298 389.441C429.908 389.441 429.696 389.421 429.696 389.421L327.09 389.421L325.993 387.954C326.19 389.665 326.291 391.407 326.291 393.174C326.291 403.665 322.745 413.305 316.832 420.875C321.571 423.689 316.214 430.831 316.214 430.831C319.049 430.247 321.251 430.004 322.95 430.004C331.454 430.004 327.26 436.171 326.422 437.298ZM591.906 437.298L596.986 437.298C597.116 436.878 597.362 436.127 597.739 435.139C595.383 436.087 593.18 436.862 591.906 437.298ZM457.584 360.029C464.586 353.666 473.62 349.641 483.549 349.13L483.549 348.882L459.681 349.262C459.133 353.23 458.422 356.808 457.584 360.029Z" fill="#3D84D1"/>
<path fill-rule="evenodd" clip-rule="evenodd" d="M617.069 130.455C617.73 131.257 618.929 131.379 619.726 130.712C620.482 130.08 620.599 128.966 619.973 128.204C619.336 127.428 618.425 126.337 617.246 124.969C616.567 124.182 615.369 124.123 614.61 124.835C613.888 125.513 613.834 126.641 614.481 127.391C615.578 128.662 616.444 129.696 617.069 130.455Z" fill="#085FCC"/>
<path fill-rule="evenodd" clip-rule="evenodd" d="M395.348 22.2735C395.408 23.309 396.298 24.0978 397.334 24.0434C401.206 23.8398 405.111 23.7397 408.979 23.7437C410.015 23.7448 410.862 22.9134 410.871 21.8777C410.879 20.8441 410.049 19.9981 409.015 19.997C405.062 19.9929 401.065 20.0951 397.104 20.3036C396.074 20.3579 395.289 21.2432 395.348 22.2735ZM439.674 25.9513C440.704 26.0983 441.663 25.3855 441.809 24.355C441.953 23.3383 441.251 22.3945 440.235 22.2492C436.301 21.6867 432.332 21.2259 428.396 20.8745C427.362 20.7822 426.456 21.5571 426.378 22.5923C426.301 23.6199 427.068 24.5163 428.094 24.6081C431.944 24.9525 435.826 25.4024 439.674 25.9513ZM364.559 26.3242C364.753 27.3491 365.747 28.0168 366.771 27.8177C370.596 27.074 374.452 26.427 378.281 25.8866C379.299 25.7431 380.019 24.813 379.892 23.7931C379.765 22.7607 378.82 22.0295 377.79 22.1749C373.876 22.7272 369.932 23.3891 366.025 24.1508C365.021 24.3466 364.369 25.3189 364.559 26.3242ZM469.844 32.3644C470.85 32.6485 471.897 32.0618 472.171 31.0535C472.439 30.0702 471.869 29.0531 470.889 28.7757C467.046 27.6886 463.17 26.6938 459.318 25.8075C458.301 25.5736 457.295 26.2259 457.083 27.2477C456.876 28.2492 457.512 29.2304 458.509 29.4597C462.281 30.3274 466.079 31.3007 469.844 32.3644ZM334.545 34.5151C334.864 35.5113 335.939 36.0499 336.931 35.7177C340.651 34.4717 344.404 33.3138 348.128 32.2619C349.11 31.9847 349.696 30.9771 349.443 29.9889C349.184 28.977 348.146 28.373 347.141 28.657C343.339 29.731 339.512 30.9138 335.718 32.1867C334.755 32.5098 334.235 33.5479 334.545 34.5151ZM499.035 42.6241C500 43.0301 501.113 42.5703 501.503 41.5984C501.879 40.6594 501.438 39.5911 500.506 39.1983C496.809 37.6408 493.074 36.1652 489.36 34.7952C488.378 34.4331 487.295 34.9576 486.961 35.9494C486.638 36.9112 487.143 37.9545 488.095 38.3057C491.738 39.6495 495.405 41.0967 499.035 42.6241ZM305.702 46.3978C306.131 47.3531 307.263 47.766 308.21 47.3184C311.781 45.6296 315.385 44.0183 318.965 42.5107C319.899 42.1176 320.356 41.0547 319.991 40.1097C319.613 39.1333 318.507 38.658 317.542 39.0646C313.898 40.6007 310.229 42.2425 306.595 43.9633C305.683 44.395 305.288 45.4776 305.702 46.3978ZM526.941 56.2665C527.856 56.7767 529.013 56.4387 529.503 55.513C529.973 54.6243 529.651 53.5223 528.773 53.0321C525.257 51.068 521.698 49.1738 518.155 47.3801C517.221 46.907 516.082 47.306 515.641 48.2557C515.216 49.1702 515.596 50.2564 516.496 50.7117C519.981 52.4747 523.481 54.3362 526.941 56.2665ZM278.261 61.4325C278.783 62.3402 279.951 62.6369 280.846 62.0937C284.247 60.0293 287.679 58.0312 291.089 56.1326C291.968 55.6432 292.305 54.5461 291.846 53.6507C291.369 52.7183 290.215 52.364 289.3 52.8738C285.837 54.8036 282.352 56.8336 278.901 58.9312C278.043 59.4522 277.761 60.5625 278.261 61.4325ZM553.369 72.821C554.228 73.419 555.412 73.1953 555.987 72.3215C556.538 71.4863 556.326 70.3646 555.505 69.7925C552.192 67.4827 548.83 65.2283 545.473 63.0662C544.592 62.4994 543.419 62.7801 542.885 63.6805C542.373 64.5429 542.639 65.6552 543.482 66.1979C546.79 68.3266 550.104 70.5462 553.369 72.821ZM252.311 79.0782C252.909 79.9363 254.097 80.1292 254.939 79.5087C258.161 77.1331 261.413 74.8139 264.644 72.5891C265.468 72.0216 265.699 70.9041 265.162 70.0596C264.601 69.1763 263.42 68.9323 262.558 69.5261C259.285 71.7815 255.99 74.1319 252.727 76.5395C251.923 77.1327 251.74 78.2582 252.311 79.0782ZM578.197 91.8835C578.995 92.5564 580.193 92.4406 580.843 91.6232C581.463 90.8437 581.354 89.7127 580.593 89.0707C577.5 86.4634 574.347 83.8958 571.183 81.4096C570.361 80.7635 569.168 80.9336 568.554 81.7798C567.968 82.5876 568.129 83.7143 568.913 84.3308C572.034 86.7816 575.145 89.3126 578.197 91.8835ZM227.835 98.8553C228.495 99.6652 229.693 99.7676 230.484 99.0851C233.528 96.4555 236.602 93.8729 239.657 91.379C240.429 90.7488 240.568 89.6208 239.968 88.8252C239.338 87.9912 238.142 87.8442 237.333 88.5051C234.242 91.0283 231.133 93.6408 228.057 96.2999C227.303 96.9511 227.207 98.083 227.835 98.8553ZM601.287 113.175C602.02 113.916 603.22 113.909 603.939 113.155C604.625 112.437 604.618 111.305 603.92 110.6C601.095 107.742 598.168 104.886 595.188 102.078C594.428 101.363 593.227 101.426 592.542 102.213C591.89 102.963 591.95 104.094 592.673 104.776C595.612 107.543 598.499 110.359 601.287 113.175ZM204.761 120.363C205.47 121.127 206.67 121.152 207.412 120.42C210.29 117.582 213.195 114.784 216.081 112.071C216.805 111.39 216.864 110.259 216.212 109.51C215.527 108.723 214.327 108.66 213.567 109.374C210.65 112.115 207.717 114.941 204.815 117.806C204.109 118.503 204.086 119.635 204.761 120.363Z" fill="#085FCC"/>
<path fill-rule="evenodd" clip-rule="evenodd" d="M188.376 137.372C189.115 138.102 190.313 138.075 191.021 137.313C191.946 136.319 192.878 135.326 193.808 134.341C194.489 133.619 194.479 132.487 193.783 131.78C193.053 131.038 191.853 131.048 191.138 131.806C190.197 132.804 189.255 133.811 188.319 134.817C187.644 135.544 187.67 136.675 188.376 137.372Z" fill="#085FCC"/>
<path fill-rule="evenodd" clip-rule="evenodd" d="M394.604 187.771L360.821 187.771L360.821 183.095L394.604 183.095L394.604 187.771Z" fill="#2D79CF"/>
<path fill-rule="evenodd" clip-rule="evenodd" d="M645.303 240.041L631.749 240.041L631.749 221.876L645.303 221.876L645.303 240.041Z" fill="#316FC3"/>
<path fill-rule="evenodd" clip-rule="evenodd" d="M645.303 298.481L631.749 298.481L631.749 280.312L645.303 280.312L645.303 298.481Z" fill="#316FC3"/>
<path fill-rule="evenodd" clip-rule="evenodd" d="M624.477 240.041L610.922 240.041L610.922 221.876L624.477 221.876L624.477 240.041Z" fill="#316FC3"/>
<path fill-rule="evenodd" clip-rule="evenodd" d="M603.648 240.041L590.093 240.041L590.093 221.876L603.648 221.876L603.648 240.041Z" fill="#316FC3"/>
<path fill-rule="evenodd" clip-rule="evenodd" d="M603.648 338.023L590.093 338.023L590.093 319.854L603.648 319.854L603.648 338.023Z" fill="#316FC3"/>
<path fill-rule="evenodd" clip-rule="evenodd" d="M624.477 269.032L610.922 269.032L610.922 250.863L624.477 250.863L624.477 269.032Z" fill="#316FC3"/>
<path fill-rule="evenodd" clip-rule="evenodd" d="M624.477 369.062L610.922 369.062L610.922 350.893L624.477 350.893L624.477 369.062Z" fill="#316FC3"/>
<path fill-rule="evenodd" clip-rule="evenodd" d="M624.477 298.481L610.922 298.481L610.922 280.312L624.477 280.312L624.477 298.481Z" fill="#316FC3"/>
<path fill-rule="evenodd" clip-rule="evenodd" d="M585.75 298.481L572.195 298.481L572.195 280.312L585.75 280.312L585.75 298.481Z" fill="#316FC3"/>
<path fill-rule="evenodd" clip-rule="evenodd" d="M585.748 369.061L572.193 369.061L572.193 350.892L585.748 350.892L585.748 369.061Z" fill="#316FC3"/>
<path fill-rule="evenodd" clip-rule="evenodd" d="M568.707 240.041L555.152 240.041L555.152 221.876L568.707 221.876L568.707 240.041Z" fill="#316FC3"/>
<path fill-rule="evenodd" clip-rule="evenodd" d="M458.805 159.9L451.277 159.9L451.277 149.805L458.805 149.805L458.805 159.9Z" fill="#316FC3"/>
<path fill-rule="evenodd" clip-rule="evenodd" d="M443.143 159.9L435.611 159.9L435.611 149.805L443.143 149.805L443.143 159.9Z" fill="#316FC3"/>
<path fill-rule="evenodd" clip-rule="evenodd" d="M458.805 177.711L451.277 177.711L451.277 167.619L458.805 167.619L458.805 177.711Z" fill="#316FC3"/>
<path fill-rule="evenodd" clip-rule="evenodd" d="M427.479 177.711L419.951 177.711L419.951 167.619L427.479 167.619L427.479 177.711Z" fill="#316FC3"/>
<path fill-rule="evenodd" clip-rule="evenodd" d="M443.143 195.526L435.611 195.526L435.611 185.434L443.143 185.434L443.143 195.526Z" fill="#316FC3"/>
<path fill-rule="evenodd" clip-rule="evenodd" d="M427.479 195.526L419.951 195.526L419.951 185.434L427.479 185.434L427.479 195.526Z" fill="#316FC3"/>
<path fill-rule="evenodd" clip-rule="evenodd" d="M458.805 213.341L451.277 213.341L451.277 203.249L458.805 203.249L458.805 213.341Z" fill="#316FC3"/>
<path fill-rule="evenodd" clip-rule="evenodd" d="M427.479 213.34L419.951 213.34L419.951 203.249L427.479 203.249L427.479 213.34Z" fill="#316FC3"/>
<path fill-rule="evenodd" clip-rule="evenodd" d="M458.805 231.154L451.277 231.154L451.277 221.058L458.805 221.058L458.805 231.154Z" fill="#316FC3"/>
<path fill-rule="evenodd" clip-rule="evenodd" d="M443.143 231.154L435.611 231.154L435.611 221.058L443.143 221.058L443.143 231.154Z" fill="#316FC3"/>
<path fill-rule="evenodd" clip-rule="evenodd" d="M427.479 248.96L419.951 248.96L419.951 238.868L427.479 238.868L427.479 248.96Z" fill="#316FC3"/>
<path fill-rule="evenodd" clip-rule="evenodd" d="M458.805 284.589L451.277 284.589L451.277 274.497L458.805 274.497L458.805 284.589Z" fill="#316FC3"/>
<path fill-rule="evenodd" clip-rule="evenodd" d="M336.811 254.81L329.279 254.81L329.279 244.719L336.811 244.719L336.811 254.81Z" fill="#316FC3"/>
<path fill-rule="evenodd" clip-rule="evenodd" d="M294.982 254.81L287.451 254.81L287.451 244.718L294.982 244.718L294.982 254.81Z" fill="#316FC3"/>
<path fill-rule="evenodd" clip-rule="evenodd" d="M316.453 227.397L308.926 227.397L308.926 217.305L316.453 217.305L316.453 227.397Z" fill="#316FC3"/>
<path fill-rule="evenodd" clip-rule="evenodd" d="M195.432 242.625L187.904 242.625L187.904 232.533L195.432 232.533L195.432 242.625Z" fill="#3970C3"/>
<path fill-rule="evenodd" clip-rule="evenodd" d="M170.25 242.625L162.723 242.625L162.723 232.533L170.25 232.533L170.25 242.625Z" fill="#3970C3"/>
<path fill-rule="evenodd" clip-rule="evenodd" d="M170.25 260.615L162.723 260.615L162.723 250.523L170.25 250.523L170.25 260.615Z" fill="#3970C3"/>
<path fill-rule="evenodd" clip-rule="evenodd" d="M187.904 278.604L192.871 278.604C193.08 278.42 193.284 278.233 193.481 278.049C194.126 277.461 194.775 276.818 195.432 276.126L195.432 268.512L187.904 268.512L187.904 278.604Z" fill="#3970C3"/>
<path fill-rule="evenodd" clip-rule="evenodd" d="M192.871 278.605L195.432 278.605L195.432 276.127C194.775 276.818 194.126 277.462 193.481 278.049C193.284 278.233 193.08 278.421 192.871 278.605Z" fill="#316FC3"/>
<path fill-rule="evenodd" clip-rule="evenodd" d="M170.25 278.604L162.723 278.604L162.723 268.512L170.25 268.512L170.25 278.604Z" fill="#3970C3"/>
<path fill-rule="evenodd" clip-rule="evenodd" d="M195.432 296.599L187.904 296.599L187.904 286.507L195.432 286.507L195.432 296.599Z" fill="#316FC3"/>
<path fill-rule="evenodd" clip-rule="evenodd" d="M182.842 314.588L175.314 314.588L175.314 304.497L182.842 304.497L182.842 314.588Z" fill="#316FC3"/>
<path fill-rule="evenodd" clip-rule="evenodd" d="M170.25 314.588L162.723 314.588L162.723 304.497L170.25 304.497L170.25 314.588Z" fill="#316FC3"/>
<path fill-rule="evenodd" clip-rule="evenodd" d="M170.25 332.578L162.723 332.578L162.723 322.486L170.25 322.486L170.25 332.578Z" fill="#316FC3"/>
<path fill-rule="evenodd" clip-rule="evenodd" d="M195.432 350.573L187.904 350.573L187.904 340.481L195.432 340.481L195.432 350.573Z" fill="#316FC3"/>
<path fill-rule="evenodd" clip-rule="evenodd" d="M182.842 350.573L175.314 350.573L175.314 340.481L182.842 340.481L182.842 350.573Z" fill="#316FC3"/>
<path fill-rule="evenodd" clip-rule="evenodd" d="M300.279 227.396L292.752 227.396L292.752 217.305L300.279 217.305L300.279 227.396Z" fill="#316FC3"/>
<path fill-rule="evenodd" clip-rule="evenodd" d="M322.867 275.118L315.336 275.118L315.336 265.027L322.867 265.027L322.867 275.118Z" fill="#316FC3"/>
<path fill-rule="evenodd" clip-rule="evenodd" d="M336.683 295.424L336.811 295.424L336.811 294.677C336.768 294.924 336.725 295.176 336.683 295.424Z" fill="#316FC3"/>
<path fill-rule="evenodd" clip-rule="evenodd" d="M308.926 295.422L301.395 295.422L301.395 285.33L308.926 285.33L308.926 295.422Z" fill="#316FC3"/>
<path fill-rule="evenodd" clip-rule="evenodd" d="M294.982 295.422L287.451 295.422L287.451 285.33L294.982 285.33L294.982 295.422Z" fill="#316FC3"/>
<path fill-rule="evenodd" clip-rule="evenodd" d="M315.336 308.095C315.637 307.284 315.931 306.464 316.217 305.633L315.336 305.633L315.336 308.095Z" fill="#316FC3"/>
<path fill-rule="evenodd" clip-rule="evenodd" d="M331.207 336.033L336.811 336.033L336.811 325.941L332.35 325.941C331.933 329.434 331.554 332.812 331.207 336.033Z" fill="#316FC3"/>
<path fill-rule="evenodd" clip-rule="evenodd" d="M301.396 329.326C302.813 328.443 304.153 327.304 305.424 325.941L301.396 325.941L301.396 329.326Z" fill="#316FC3"/>
<path fill-rule="evenodd" clip-rule="evenodd" d="M294.982 336.033L287.451 336.033L287.451 325.941L294.982 325.941L294.982 336.033Z" fill="#316FC3"/>
<path fill-rule="evenodd" clip-rule="evenodd" d="M334.439 375.878L336.811 375.878L336.811 366.558L329.314 366.558L334.439 375.878Z" fill="#316FC3"/>
<path fill-rule="evenodd" clip-rule="evenodd" d="M568.707 338.023L555.152 338.023L555.152 319.854L568.707 319.854L568.707 338.023Z" fill="#316FC3"/>
<path fill-rule="evenodd" clip-rule="evenodd" d="M525.117 231.292L483.549 231.292L483.549 226.616L525.117 226.616L525.117 231.292Z" fill="#3173C9"/>
<path fill-rule="evenodd" clip-rule="evenodd" d="M394.604 218.048L360.821 218.048L360.821 213.372L394.604 213.372L394.604 218.048Z" fill="#3173C9"/>
<path fill-rule="evenodd" clip-rule="evenodd" d="M394.604 228.141L360.821 228.141L360.821 223.464L394.604 223.464L394.604 228.141Z" fill="#3173C9"/>
<path fill-rule="evenodd" clip-rule="evenodd" d="M394.604 258.418L360.821 258.418L360.821 253.741L394.604 253.741L394.604 258.418Z" fill="#3173C9"/>
<path fill-rule="evenodd" clip-rule="evenodd" d="M259.248 249.395L225.466 249.395L225.466 244.719L259.248 244.719L259.248 249.395Z" fill="#3173C9"/>
<path fill-rule="evenodd" clip-rule="evenodd" d="M259.248 259.487L225.466 259.487L225.466 254.811L259.248 254.811L259.248 259.487Z" fill="#3173C9"/>
<path fill-rule="evenodd" clip-rule="evenodd" d="M259.248 279.672L225.466 279.672L225.466 274.996L259.248 274.996L259.248 279.672Z" fill="#3173C9"/>
<path fill-rule="evenodd" clip-rule="evenodd" d="M259.248 309.949L225.466 309.949L225.466 305.273L259.248 305.273L259.248 309.949Z" fill="#3173C9"/>
<path fill-rule="evenodd" clip-rule="evenodd" d="M259.248 330.13L225.466 330.13L225.466 325.458L259.248 325.458L259.248 330.13Z" fill="#3173C9"/>
<path fill-rule="evenodd" clip-rule="evenodd" d="M259.248 350.319L225.466 350.319L225.466 345.643L259.248 345.643L259.248 350.319Z" fill="#3173C9"/>
<path fill-rule="evenodd" clip-rule="evenodd" d="M225.465 370.504L247.12 370.504C248.066 368.873 249.109 367.314 250.244 365.828L225.465 365.828L225.465 370.504Z" fill="#3173C9"/>
<path fill-rule="evenodd" clip-rule="evenodd" d="M394.604 288.691L360.821 288.691L360.821 284.019L394.604 284.019L394.604 288.691Z" fill="#3173C9"/>
<path fill-rule="evenodd" clip-rule="evenodd" d="M394.604 308.88L360.821 308.88L360.821 304.204L394.604 304.204L394.604 308.88Z" fill="#3173C9"/>
<path fill-rule="evenodd" clip-rule="evenodd" d="M525.117 244.716L483.549 244.716L483.549 240.04L525.117 240.04L525.117 244.716Z" fill="#3173C9"/>
<path fill-rule="evenodd" clip-rule="evenodd" d="M525.117 258.146L483.549 258.146L483.549 253.469L525.117 253.469L525.117 258.146Z" fill="#3173C9"/>
<path fill-rule="evenodd" clip-rule="evenodd" d="M525.117 284.993L483.549 284.993L483.549 280.317L525.117 280.317L525.117 284.993Z" fill="#3173C9"/>
<path fill-rule="evenodd" clip-rule="evenodd" d="M525.117 311.852L483.549 311.852L483.549 307.176L525.117 307.176L525.117 311.852Z" fill="#3173C9"/>
<path fill-rule="evenodd" clip-rule="evenodd" d="M525.117 323.401L525.117 320.6L520.009 320.6C520.016 320.604 520.024 320.604 520.032 320.608C521.921 321.139 523.61 322.122 525.117 323.401Z" fill="#3173C9"/>
<path fill-rule="evenodd" clip-rule="evenodd" d="M501.304 352.128L525.117 352.128L525.117 348.219L483.549 348.878L483.549 349.126C484.26 349.09 484.974 349.074 485.692 349.074C491.204 349.074 496.469 350.153 501.304 352.128Z" fill="#3173C9"/>
<path fill-rule="evenodd" clip-rule="evenodd" d="M525.117 376.407L525.117 374.301L524.218 374.301C524.535 374.992 524.835 375.696 525.117 376.407Z" fill="#3173C9"/>
<path fill-rule="evenodd" clip-rule="evenodd" d="M394.604 197.863L360.821 197.863L360.821 193.187L394.604 193.187L394.604 197.863Z" fill="#2D79CF"/>
<path fill-rule="evenodd" clip-rule="evenodd" d="M630.33 155.328C630.295 152.438 628.001 150.124 625.208 150.16C622.414 150.196 620.178 152.57 620.213 155.459C620.248 158.349 622.542 160.663 625.335 160.627C628.129 160.591 630.365 158.217 630.33 155.328ZM635.321 159.488L625.565 179.524L615.324 159.748C612.293 152.494 617.16 144.217 624.791 143.885C624.904 143.881 625.017 143.877 625.131 143.877C625.245 143.877 625.358 143.877 625.471 143.877C633.108 144.005 638.175 152.154 635.321 159.488Z" fill="#A2D474"/>
<path fill-rule="evenodd" clip-rule="evenodd" d="M773.863 351.351C769.776 350.511 766.61 347.102 765.85 342.802C763.699 330.635 756.899 309.225 735.649 308.829C710.618 308.37 706.155 327.79 706.746 341.934C706.894 345.491 704.092 348.401 700.704 348.253C693.3 347.933 682.503 349.712 682.503 362.781C682.503 362.781 675.807 387.393 694.847 393.328C713.888 399.259 723.094 391.458 731.255 399.371C738.791 406.677 763.374 414.263 775.246 397.633C777.103 395.035 779.412 392.825 782.021 391.074C786.479 388.088 792.347 380.834 787.442 364.208C785.537 357.749 780.484 352.817 774.186 351.418C774.079 351.395 773.972 351.375 773.863 351.351Z" fill="#2865AA"/>
<path fill-rule="evenodd" clip-rule="evenodd" d="M727.442 372.747C729.167 374.118 730.798 375.688 732.28 377.463C732.655 377.911 733.019 378.374 733.373 378.85C733.243 376.664 732.991 374.929 732.6 373.81C732.149 372.515 730.84 370.325 729.234 367.227C727.48 364.945 725.339 362.619 723.047 360.613C720.574 358.458 717.871 356.628 714.794 355.609C718.009 356.128 720.979 357.555 723.733 359.326C724.603 359.889 725.486 360.509 726.357 361.172C722.688 352.603 719.082 340.053 720.567 323.371C720.567 323.371 720.984 334.586 723.314 344.826C723.698 343.163 724.228 341.572 724.84 340.046C726.389 336.373 727.413 334.762 729.561 331.608C727.767 335.01 726.928 336.724 725.789 340.505C723.522 348.562 724.994 351.28 726.219 354.022C729.86 362.179 734.264 368.047 736.139 372.827C736.843 371.276 737.558 369.733 738.285 368.202C739.84 364.933 741.438 361.692 743.102 358.502C743.372 357.987 743.644 357.471 743.917 356.956C744.113 356.268 744.406 355.301 744.75 353.075C744.928 351.94 745.076 350.797 745.182 349.646C745.447 346.668 745.447 345.037 745.408 342.671C745.662 345.093 745.799 346.7 745.796 349.686C745.792 350.865 745.745 352.044 745.665 353.223C745.652 353.415 745.635 353.61 745.619 353.806L745.647 353.754C746.515 352.188 747.397 350.633 748.314 349.106C749.23 347.575 750.171 346.069 751.157 344.602C752.142 343.139 753.176 341.716 754.296 340.401C753.255 341.804 752.309 343.299 751.413 344.83C750.519 346.364 749.67 347.935 748.849 349.522C748.026 351.112 747.24 352.727 746.468 354.35C745.696 355.972 744.949 357.611 744.215 359.258C744.121 359.47 744.027 359.681 743.934 359.893C744.426 359.737 744.893 359.598 745.718 359.382C749.485 358.398 752.597 358.123 755.435 357.915C752.844 358.398 749.734 359.002 745.958 360.437C745.072 360.776 744.029 361.208 743.163 361.652C742.072 364.166 741.018 366.704 739.991 369.25C739.316 370.932 738.654 372.619 738.009 374.313C737.689 375.161 737.37 376.008 737.063 376.859L737.055 376.879C737.058 377.095 737.052 377.307 737.036 377.519C736.922 379.03 736.646 382.659 736.349 387.287C738.714 386.02 741.332 385.057 744.205 384.481C747.36 383.85 749.705 383.95 754.578 383.77C754.981 383.494 755.605 382.946 756.219 382.231C757.738 380.452 758.813 378.122 759.218 375.325C759.056 378.162 758.179 380.696 756.73 382.783C756.508 383.102 756.272 383.41 756.023 383.706C757.404 383.634 758.779 383.53 760.15 383.354C761.645 383.158 763.133 382.882 764.585 382.415C766.032 381.951 767.457 381.296 768.699 380.261C767.522 381.4 766.118 382.183 764.68 382.778C763.351 383.326 761.979 383.714 760.598 384.025C760.877 384.073 761.156 384.121 761.435 384.173C762.453 384.361 763.467 384.573 764.473 384.829C765.479 385.093 766.479 385.38 767.463 385.736C768.445 386.1 769.414 386.515 770.34 387.035C769.383 386.599 768.398 386.272 767.404 386.004C766.409 385.736 765.402 385.54 764.394 385.368C763.384 385.205 762.37 385.085 761.355 384.989C760.342 384.897 757.432 384.789 756.428 384.765L756.429 384.765C751.225 385.492 748.077 385.516 744.555 386.531C741.497 387.415 738.738 388.762 736.443 390.392C736.342 390.464 736.243 390.536 736.144 390.608C735.396 403.174 734.718 420.38 736.307 424.728C738.677 431.219 724.293 428.885 724.293 428.885C724.293 428.885 729.132 426.091 731.047 411.499C732.16 403.018 733.403 392.047 733.476 383.766C733.41 383.61 733.344 383.458 733.274 383.302C733.05 382.803 732.804 382.307 732.547 381.819C732.03 380.84 731.461 379.893 730.846 378.982C729.615 377.159 728.208 375.485 726.676 373.966C724.255 371.5 720.521 368.814 716.191 366.924C720.637 368.258 724.679 370.485 727.442 372.747Z" fill="black"/>
<path fill-rule="evenodd" clip-rule="evenodd" d="M628.04 375.732C618.345 375.92 608.786 373.17 600.665 367.686C594.137 363.282 588.018 356.791 586.886 347.635C584.301 326.712 595.95 327.399 598.808 318.866C601.665 310.333 593.189 306.512 596.848 290.965C598.814 282.616 605.031 278.999 614.728 265.582C624.426 252.161 636.172 245.282 644.744 250.286C653.315 255.29 652.971 266.053 659.345 269.638C665.719 273.224 675.514 285.733 671.778 309.522C668.041 333.306 693.317 324.434 683.426 351.955C676.175 372.135 644.452 375.416 628.04 375.732Z" fill="#2865AA"/>
<path fill-rule="evenodd" clip-rule="evenodd" d="M639.581 357.743C638.68 370.96 637.361 423.597 639.276 428.169C642.133 434.992 627.147 426.491 627.147 426.491C627.147 426.491 631.129 395.068 633.437 379.717C634.464 372.887 636.347 352.331 636.365 350.545C636.286 350.381 636.206 350.217 636.122 350.057C635.852 349.53 635.555 349.01 635.245 348.495C634.623 347.467 633.936 346.468 633.195 345.513C631.711 343.595 630.015 341.832 628.168 340.237C624.691 337.144 619.906 334.494 615.528 332.827C621.014 334.262 625.862 336.644 629.092 338.954C631.171 340.397 633.138 342.048 634.924 343.914C635.375 344.386 635.814 344.874 636.24 345.373C636.084 343.075 635.781 341.248 635.309 340.069C634.766 338.711 633.187 336.408 631.251 333.147C629.203 330.821 626.594 328.327 623.793 326.189C620.746 323.875 617.497 321.98 613.843 320.925C617.674 321.469 621.234 322.935 624.62 324.838C625.688 325.441 626.734 326.081 627.784 326.78C623.36 317.764 619.013 304.563 620.803 287.017C620.803 287.017 621.306 298.815 624.115 309.582C624.577 307.832 625.217 306.161 625.954 304.555C627.825 300.686 629.06 298.991 631.646 295.678C629.493 299.243 628.474 301.053 627.098 305.038C624.454 313.239 626.029 316.153 627.617 319.258C632.006 327.835 637.316 334.01 639.576 339.038C640.424 337.404 641.286 335.785 642.162 334.17C644.037 330.733 645.964 327.328 647.97 323.971C648.295 323.427 648.623 322.884 648.952 322.34C649.257 321.409 649.292 321.353 649.596 320.038C649.727 319.45 649.851 318.859 649.956 318.259C650.171 317.068 650.35 315.865 650.477 314.65C650.601 313.439 650.702 312.22 650.739 310.997C650.804 309.71 650.768 308.279 650.749 307.316C650.861 308.243 651.045 309.69 651.109 310.989C651.197 312.22 651.219 313.459 651.217 314.694C651.213 315.933 651.155 317.176 651.059 318.415C651.044 318.619 651.024 318.823 651.005 319.031L651.037 318.979C652.084 317.328 653.147 315.689 654.253 314.083C655.357 312.476 656.492 310.889 657.68 309.351C658.868 307.808 660.115 306.313 661.464 304.926C660.209 306.405 659.069 307.976 657.989 309.59C656.911 311.201 655.888 312.852 654.898 314.522C653.906 316.193 652.959 317.892 652.028 319.598C651.097 321.309 650.196 323.031 649.312 324.766C649.198 324.986 649.086 325.21 648.972 325.433C650.982 324.878 652.957 324.478 655.011 324.15C658.366 323.651 659.613 323.555 662.838 323.351C659.646 323.871 658.43 324.083 655.157 324.902C651.816 325.781 649.416 326.664 648.043 327.284C646.729 329.926 645.458 332.596 644.22 335.277C643.406 337.044 642.607 338.818 641.831 340.601C641.519 341.32 641.062 341.992 640.906 342.759C640.335 345.557 639.581 357.743 639.581 357.743Z" fill="black"/>
<path fill-rule="evenodd" clip-rule="evenodd" d="M185.752 167.75C185.705 164.861 183.404 162.559 180.607 162.607C177.815 162.655 175.59 165.037 175.637 167.93C175.683 170.82 177.989 173.122 180.781 173.074C183.573 173.026 185.802 170.644 185.752 167.75ZM190.761 171.887L181.09 191.971L170.767 172.239C167.704 164.997 172.535 156.699 180.167 156.336C180.279 156.332 180.395 156.328 180.507 156.324C180.619 156.324 180.735 156.324 180.847 156.324C188.482 156.42 193.584 164.545 190.761 171.887Z" fill="#9369BF"/>
<path fill-rule="evenodd" clip-rule="evenodd" d="M706.688 418.657C706.688 418.657 705.848 404.228 693.713 405.563C693.713 405.563 677.189 378.31 659.891 416.786C659.891 416.786 644.271 408.049 638.526 427.046C638.526 427.046 628.908 408.501 615.224 414.648C601.54 420.791 596.871 437.669 596.871 437.669L697.869 439.895L706.688 418.657Z" fill="#669CDF"/>
<path fill-rule="evenodd" clip-rule="evenodd" d="M405.166 145.828C405.668 146.175 414.563 162.71 414.563 162.71L426.535 151.819L414.902 131.753L405.166 137.406L405.166 145.828Z" fill="#E8AA82"/>
<path fill-rule="evenodd" clip-rule="evenodd" d="M421.635 143.362C420.156 147.678 417.131 153.393 411.08 156.275C408.527 151.591 405.456 146.027 405.167 145.828L405.167 137.406L414.903 131.753L421.635 143.362Z" fill="#F19A5E"/>
<path fill-rule="evenodd" clip-rule="evenodd" d="M530.283 312.888C530.283 312.888 533.669 310.418 536.903 318.327C540.137 326.237 535.792 329.382 535.792 329.382C535.792 329.382 530.229 325.122 530.283 324.31C530.337 323.499 530.537 313.283 530.537 313.283L530.283 312.888Z" fill="#EEC9C0"/>
<path fill-rule="evenodd" clip-rule="evenodd" d="M524.72 310.037C524.72 310.037 527.457 308.29 530.538 313.286C531.673 315.125 532.855 317.883 533.964 321.979C538.079 337.191 533.964 337.191 533.964 337.191L527.056 334.149C527.056 334.149 520.44 316.707 520.832 315.289C521.224 313.866 524.72 310.037 524.72 310.037Z" fill="#A2D474"/>
<path fill-rule="evenodd" clip-rule="evenodd" d="M466.601 270.867L581.531 270.867C582.429 270.867 583.158 271.619 583.158 272.55L583.158 273.849C583.158 274.776 582.429 275.532 581.531 275.532L466.601 275.532C465.701 275.532 464.971 274.776 464.971 273.849L464.971 272.55C464.971 271.619 465.701 270.867 466.601 270.867Z" fill="#023047"/>
<path fill-rule="evenodd" clip-rule="evenodd" d="M495.107 294.951L487.171 294.951L487.171 273.197L495.107 273.197L495.107 294.951Z" fill="#023047"/>
<path fill-rule="evenodd" clip-rule="evenodd" d="M550.887 289.019L553.543 289.019C555.448 289.019 556.992 287.421 556.992 285.45L556.992 268.94L547.437 268.94L547.437 285.45C547.437 287.421 548.982 289.019 550.887 289.019Z" fill="#023047"/>
<path fill-rule="evenodd" clip-rule="evenodd" d="M548.76 284.076C547.618 285.423 519.801 312.521 519.801 312.521L522.153 315.87L551.553 285.862L548.76 284.076Z" fill="#023047"/>
<path fill-rule="evenodd" clip-rule="evenodd" d="M296.115 334.044L294.555 334.044C291.307 334.044 288.673 336.769 288.673 340.131L288.673 347.94L295.926 347.94C295.926 347.94 299.163 342.161 300.337 343.376C301.511 344.595 296.115 334.044 296.115 334.044Z" fill="#E7DEF1"/>
<path fill-rule="evenodd" clip-rule="evenodd" d="M443.08 393.173C443.08 417.525 462.159 437.269 485.691 437.269C509.225 437.269 528.303 417.525 528.303 393.173C528.303 368.817 509.225 349.077 485.691 349.077C462.159 349.077 443.08 368.817 443.08 393.173Z" fill="black"/>
<path fill-rule="evenodd" clip-rule="evenodd" d="M466.486 393.173C466.486 404.148 475.083 413.048 485.692 413.048C496.301 413.048 504.9 404.148 504.9 393.173C504.9 382.194 496.301 373.293 485.692 373.293C475.083 373.293 466.486 382.194 466.486 393.173Z" fill="#949494"/>
<path fill-rule="evenodd" clip-rule="evenodd" d="M241.063 393.173C241.063 417.525 260.142 437.269 283.674 437.269C307.21 437.269 326.289 417.525 326.289 393.173C326.289 368.817 307.21 349.077 283.674 349.077C260.142 349.077 241.063 368.817 241.063 393.173Z" fill="black"/>
<path fill-rule="evenodd" clip-rule="evenodd" d="M264.468 393.172C264.468 404.147 273.069 413.048 283.674 413.048C294.284 413.048 302.885 404.147 302.885 393.172C302.885 382.193 294.284 373.292 283.674 373.292C273.069 373.292 264.468 382.193 264.468 393.172Z" fill="#949494"/>
<path fill-rule="evenodd" clip-rule="evenodd" d="M434.812 386.677L535.481 386.677C540.377 386.677 544.346 382.569 544.346 377.501L544.346 368.069C544.346 363.001 540.377 358.892 535.481 358.892L434.812 358.892L434.812 386.677Z" fill="#023047"/>
<path fill-rule="evenodd" clip-rule="evenodd" d="M415.534 306.9L499.372 306.9C502.564 306.9 505.15 304.222 505.15 300.917L505.15 296.317C505.15 293.011 502.564 290.338 499.372 290.338L415.534 290.338C412.344 290.338 409.757 293.011 409.757 296.317L409.757 300.917C409.757 304.222 412.344 306.9 415.534 306.9Z" fill="#A2D474"/>
<path fill-rule="evenodd" clip-rule="evenodd" d="M413.099 305.348C413.099 305.348 420.727 309.708 426.903 327.961C433.074 346.219 431.754 373.752 393.387 375.878L334.439 375.878L328.561 365.183C328.561 365.183 333.559 292.367 345.025 260.117L325.618 260.117C325.618 260.117 319.763 322.098 299.186 330.463C297.204 331.267 295.926 333.273 295.926 335.471L295.926 347.737L327.09 389.419L429.695 389.419C429.695 389.419 453.803 391.617 459.681 349.26L529.246 348.157C533.059 348.097 535.761 344.268 534.641 340.495C532.471 333.185 528.052 322.874 520.032 320.607C507.308 317.01 413.099 305.348 413.099 305.348Z" fill="#1C1C1C"/>
<path fill-rule="evenodd" clip-rule="evenodd" d="M525.483 322.971C525.388 323.135 525.29 323.299 525.188 323.467L425.245 323.467L424.221 321.033C418.722 308.563 413.098 305.345 413.098 305.345L515.606 305.345C524.346 305.345 529.949 315.193 525.483 322.971Z" fill="#023047"/>
<path fill-rule="evenodd" clip-rule="evenodd" d="M531.54 358.893L456.866 358.893C448.84 358.893 443.205 350.704 445.839 342.862C449.821 331.02 459.067 318.278 481.831 316.1C511.23 313.282 529.009 337.594 536.046 351.087C537.885 354.616 535.413 358.893 531.54 358.893Z" fill="#A2D474"/>
<path fill-rule="evenodd" clip-rule="evenodd" d="M327.089 389.421L304.16 351.088C304.16 351.088 292.4 341.656 269.173 346.524C254.748 349.546 246.22 359.509 241.829 366.624C239.793 369.921 242.064 374.245 245.845 374.245L281.157 374.245C291.983 374.245 302.229 379.313 309.022 388.038L309.93 389.201C314.831 395.496 322.223 399.157 330.036 399.157C335.32 399.157 340.402 397.071 344.249 393.322L348.258 389.421L327.089 389.421Z" fill="#A2D474"/>
<path fill-rule="evenodd" clip-rule="evenodd" d="M324.032 221.949C324.032 218.723 326.878 216.301 329.937 216.925C342.941 219.571 356.59 230.354 356.59 243.255C356.59 256.161 342.941 266.944 329.937 269.59C326.878 270.213 324.032 267.791 324.032 264.566L324.032 221.949Z" fill="#A2D474"/>
<path fill-rule="evenodd" clip-rule="evenodd" d="M324.031 222.066L324.031 264.451C315.349 261.598 309.058 253.188 309.058 243.257C309.058 233.329 315.349 224.92 324.031 222.066Z" fill="#EEC9C0"/>
<path fill-rule="evenodd" clip-rule="evenodd" d="M574.73 270.867L473.403 270.867L473.403 207.635L574.73 207.635L574.73 270.867Z" fill="#B295D2"/>
<path fill-rule="evenodd" clip-rule="evenodd" d="M576.885 207.637L471.242 207.637L471.242 199.676L576.885 199.676L576.885 207.637Z" fill="#9369BF"/>
<path fill-rule="evenodd" clip-rule="evenodd" d="M550.121 283.696C550.121 284.891 551.059 285.862 552.216 285.862C553.373 285.862 554.311 284.891 554.311 283.696C554.311 282.497 553.373 281.526 552.216 281.526C551.059 281.526 550.121 282.497 550.121 283.696Z" fill="#0F0F0F"/>
<path fill-rule="evenodd" clip-rule="evenodd" d="M462.572 335.313L510.827 335.313C511.384 335.313 511.836 334.845 511.836 334.27L511.836 333.463C511.836 332.887 511.384 332.419 510.827 332.419L462.572 332.419C462.015 332.419 461.564 332.887 461.564 333.463L461.564 334.27C461.564 334.845 462.015 335.313 462.572 335.313Z" fill="#1C1C1C"/>
<path fill-rule="evenodd" clip-rule="evenodd" d="M462.572 342.625L510.827 342.625C511.384 342.625 511.836 342.157 511.836 341.582L511.836 340.778C511.836 340.203 511.384 339.735 510.827 339.735L462.572 339.735C462.015 339.735 461.564 340.203 461.564 340.779L461.564 341.582C461.564 342.157 462.015 342.625 462.572 342.625Z" fill="#1C1C1C"/>
<path fill-rule="evenodd" clip-rule="evenodd" d="M375.149 337.59L378.834 378.532L381.997 384.432L387.689 380.171L387.574 336.543L375.149 337.59Z" fill="#E8AA82"/>
<path fill-rule="evenodd" clip-rule="evenodd" d="M353.788 333.751L355.603 378.53L358.766 384.429L364.455 380.169L364.339 336.54L353.788 333.751Z" fill="#E8AA82"/>
<path fill-rule="evenodd" clip-rule="evenodd" d="M341.109 387.218L365.668 387.302C365.861 387.302 366.016 387.142 366.02 386.946L366.023 385.032C366.023 384.836 365.869 384.672 365.676 384.672L341.116 384.588C340.923 384.588 340.769 384.748 340.769 384.944L340.761 386.859C340.761 387.054 340.916 387.218 341.109 387.218Z" fill="#D5E4F6"/>
<path fill-rule="evenodd" clip-rule="evenodd" d="M364.897 376.675L365.708 383.994C365.808 384.897 365.318 385.712 364.676 385.712L342.423 385.636C341.843 385.632 341.272 385.256 340.971 384.553C340.662 383.834 340.604 382.751 341.604 381.296C343.608 378.386 350.155 377.699 353.368 375.221L363.734 375.257C364.313 375.261 364.804 375.86 364.897 376.675Z" fill="#A2D474"/>
<path fill-rule="evenodd" clip-rule="evenodd" d="M354.929 379.476C355.087 379.376 355.149 379.096 355.056 378.88C354.624 377.877 353.264 375.431 350.483 375.923C350.321 375.951 350.213 376.175 350.24 376.403L350.24 376.407C350.267 376.63 350.41 376.774 350.565 376.746C353.059 376.315 354.214 378.469 354.562 379.312C354.639 379.492 354.794 379.56 354.929 379.476Z" fill="#D5E4F6"/>
<path fill-rule="evenodd" clip-rule="evenodd" d="M352.611 380.412C352.773 380.308 352.835 380.028 352.742 379.816C352.305 378.813 350.95 376.367 348.169 376.858C348.007 376.886 347.899 377.106 347.926 377.334L347.926 377.342C347.949 377.562 348.096 377.706 348.25 377.682C350.741 377.25 351.896 379.404 352.247 380.244C352.325 380.424 352.479 380.496 352.611 380.412Z" fill="#D5E4F6"/>
<path fill-rule="evenodd" clip-rule="evenodd" d="M350.457 381.28C350.619 381.176 350.677 380.897 350.585 380.685C350.152 379.682 348.793 377.236 346.012 377.727C345.854 377.755 345.742 377.975 345.769 378.203L345.769 378.211C345.796 378.431 345.942 378.574 346.097 378.55C348.588 378.119 349.743 380.273 350.094 381.112C350.168 381.292 350.322 381.364 350.457 381.28Z" fill="#D5E4F6"/>
<mask id="mask0_197_2824" style="mask-type:alpha" maskUnits="userSpaceOnUse" x="358" y="385" width="7" height="1">
<path d="M364.557 385.724L358.736 385.693L364.557 385.724Z" fill="white"/>
</mask>
<g mask="url(#mask0_197_2824)">
<path fill-rule="evenodd" clip-rule="evenodd" d="M364.557 385.724L358.736 385.724L358.736 385.693L364.557 385.693L364.557 385.724Z" fill="#BABCE3"/>
</g>
<path fill-rule="evenodd" clip-rule="evenodd" d="M364.555 385.715L364.555 384.943C364.559 384.791 364.651 384.66 364.782 384.608C364.775 384.592 364.767 384.576 364.759 384.556C364.45 383.836 364.392 382.753 365.393 381.298C365.397 381.29 365.4 381.286 365.404 381.282L365.184 379.288C365.061 379.28 364.929 379.272 364.79 379.272C363.087 379.272 360.376 380.231 358.734 385.695L364.555 385.715Z" fill="#8DAE6B"/>
<path fill-rule="evenodd" clip-rule="evenodd" d="M462.572 349.936L510.827 349.936C511.384 349.936 511.836 349.472 511.836 348.893L511.836 348.09C511.836 347.514 511.384 347.046 510.827 347.046L462.572 347.046C462.015 347.046 461.564 347.514 461.564 348.09L461.564 348.893C461.564 349.472 462.015 349.936 462.572 349.936Z" fill="#1C1C1C"/>
<path fill-rule="evenodd" clip-rule="evenodd" d="M369.376 277.325C366.468 277.557 354.379 282.657 352.811 291.689C351.243 300.726 352.811 370.924 352.811 370.924L366.244 370.924C366.244 370.924 376.988 315.322 376.988 313.699C376.988 312.077 369.376 277.325 369.376 277.325Z" fill="#0F0F0F"/>
<path fill-rule="evenodd" clip-rule="evenodd" d="M461.615 257.171C461.391 257.867 464.566 288.913 433.986 291.459C403.405 294.009 385.72 298.178 385.72 298.178C385.72 298.178 389.973 368.376 389.749 371.853C389.749 371.853 379.228 373.704 374.752 373.008C374.752 373.008 350.795 295.168 357.735 279.181C364.676 263.194 419.974 257.171 419.974 257.171L461.615 257.171Z" fill="#1C1C1C"/>
<path fill-rule="evenodd" clip-rule="evenodd" d="M410.704 201.356C410.704 201.356 410.391 216.468 409.422 217.867C408.449 219.266 362.107 237.583 362.107 237.583L369.715 246.483L403.857 236.392C403.857 236.392 428.312 227.315 428.061 226.66C427.81 226.004 426.466 216.704 425.257 213.063C424.044 209.422 419.487 201.192 419.487 201.192L410.704 201.356Z" fill="#DEA076"/>
<path fill-rule="evenodd" clip-rule="evenodd" d="M427.798 148.634C427.798 148.634 458.761 160.276 462.287 223.521L463.797 259.491C463.797 259.491 428.536 275.13 408.387 261.577C408.387 261.577 406.348 197.378 404.223 173.909C403.868 169.952 405.424 166.072 408.383 163.534C415.138 157.742 426.659 148.09 427.798 148.634Z" fill="#A481C9"/>
<path fill-rule="evenodd" clip-rule="evenodd" d="M438.547 193.568C438.547 193.568 446.117 225.949 435.535 234.846C428.935 240.393 367.403 251.276 367.403 251.276L363.433 241.349C363.433 241.349 412.436 223.251 415.359 221.157C418.283 219.059 413.374 191.377 413.374 191.377L438.547 193.568Z" fill="#E8AA82"/>
<path fill-rule="evenodd" clip-rule="evenodd" d="M414.614 160.345C417.387 157.799 421.361 157.128 424.771 158.619C429.502 160.685 436.273 166.556 439.934 183.079L443.035 197.335C443.035 197.335 420.032 203.178 412.98 202.846L409.369 180.804C409.369 180.804 407.326 167.032 414.614 160.345Z" fill="#9369BF"/>
<path fill-rule="evenodd" clip-rule="evenodd" d="M489.92 199.676L508.757 199.676L544.072 270.87C540.991 270.87 531.399 270.87 525.235 270.87L489.92 199.676Z" fill="#1C1C1C"/>
<path fill-rule="evenodd" clip-rule="evenodd" d="M519.995 225.321C520.797 224.898 521.785 225.225 522.196 226.057L525.911 233.543C526.323 234.374 526.005 235.397 525.203 235.821L512.561 242.539C511.759 242.963 510.772 242.635 510.36 241.804L506.645 234.318C506.233 233.487 506.551 232.463 507.353 232.04L519.995 225.321ZM513.619 244.669L526.26 237.955C528.198 236.924 528.966 234.454 527.971 232.447L524.256 224.962C523.261 222.955 520.876 222.16 518.937 223.191L506.296 229.906C504.358 230.937 503.591 233.407 504.585 235.409L508.3 242.899C509.295 244.905 511.681 245.697 513.619 244.669Z" fill="#E7DEF1"/>
<path fill-rule="evenodd" clip-rule="evenodd" d="M417.784 124.811C416.223 128.321 417.49 132.259 420.611 133.605C423.735 134.956 427.528 133.201 429.088 129.693C430.648 126.183 429.382 122.245 426.257 120.897C423.136 119.549 419.34 121.301 417.784 124.811Z" fill="#E8AA82"/>
<path fill-rule="evenodd" clip-rule="evenodd" d="M364.9 387.218L389.459 387.302C389.652 387.302 389.807 387.142 389.807 386.946L389.814 385.032C389.814 384.836 389.66 384.672 389.467 384.672L364.908 384.588C364.714 384.588 364.56 384.748 364.556 384.944L364.552 386.859C364.552 387.054 364.707 387.218 364.9 387.218Z" fill="#D5E4F6"/>
<path fill-rule="evenodd" clip-rule="evenodd" d="M388.688 376.675L389.499 383.994C389.599 384.897 389.109 385.712 388.467 385.712L366.214 385.636C365.634 385.632 365.063 385.256 364.762 384.553C364.453 383.834 364.395 382.751 365.395 381.296C367.396 378.386 373.946 377.699 377.159 375.221L387.525 375.257C388.104 375.261 388.595 375.86 388.688 376.675Z" fill="#A2D474"/>
<path fill-rule="evenodd" clip-rule="evenodd" d="M378.714 379.476C378.876 379.376 378.938 379.096 378.845 378.88C378.409 377.877 377.053 375.431 374.273 375.923C374.11 375.951 374.002 376.175 374.029 376.403L374.029 376.407C374.056 376.63 374.199 376.774 374.354 376.746C376.845 376.315 378 378.469 378.351 379.312C378.428 379.492 378.583 379.56 378.714 379.476Z" fill="#D5E4F6"/>
<path fill-rule="evenodd" clip-rule="evenodd" d="M376.401 380.412C376.563 380.308 376.621 380.028 376.528 379.816C376.095 378.813 374.74 376.367 371.955 376.858C371.797 376.886 371.689 377.106 371.712 377.334L371.716 377.342C371.739 377.562 371.886 377.706 372.04 377.682C374.531 377.25 375.686 379.404 376.038 380.244C376.111 380.424 376.265 380.496 376.401 380.412Z" fill="#D5E4F6"/>
<path fill-rule="evenodd" clip-rule="evenodd" d="M374.25 381.28C374.412 381.176 374.47 380.897 374.378 380.685C373.945 379.682 372.586 377.236 369.805 377.727C369.643 377.755 369.534 377.975 369.562 378.203L369.562 378.211C369.589 378.431 369.731 378.574 369.89 378.55C372.381 378.119 373.536 380.273 373.887 381.112C373.961 381.292 374.115 381.364 374.25 381.28Z" fill="#D5E4F6"/>
<path fill-rule="evenodd" clip-rule="evenodd" d="M388.471 385.724C388.471 385.724 388.471 385.724 388.467 385.724L382.527 385.694L388.467 385.724C388.471 385.724 388.471 385.724 388.471 385.724Z" fill="#BABCE3"/>
<path fill-rule="evenodd" clip-rule="evenodd" d="M388.471 385.715C389.054 385.715 389.514 385.031 389.51 384.228C389.51 384.152 389.506 384.072 389.498 383.996L388.977 379.288C388.853 379.28 388.722 379.272 388.583 379.272C386.88 379.272 384.168 380.231 382.527 385.695L388.467 385.715C388.471 385.715 388.471 385.715 388.471 385.715Z" fill="#8DAE6B"/>
<path fill-rule="evenodd" clip-rule="evenodd" d="M321.524 400.187L445.746 400.187C448.681 400.187 451.057 397.725 451.057 394.692L451.057 390.459C451.057 387.426 448.681 384.964 445.746 384.964L321.524 384.964C318.589 384.964 316.214 387.426 316.214 390.459L316.214 394.692C316.214 397.725 318.589 400.187 321.524 400.187Z" fill="#023047"/>
<path fill-rule="evenodd" clip-rule="evenodd" d="M508.456 437.673L590.774 437.673C590.774 437.673 591.196 437.537 591.904 437.298L508.921 437.298C508.767 437.422 508.611 437.545 508.456 437.673Z" fill="#EBFCFF"/>
<path fill-rule="evenodd" clip-rule="evenodd" d="M508.922 437.295L591.905 437.295C593.179 436.86 595.382 436.084 597.738 435.137C598.549 433.019 599.965 429.814 602.135 426.476C599.845 426.181 596.722 426.017 592.582 426.017C591.999 426.017 591.4 426.017 590.775 426.025C590.775 426.025 608.458 412.424 588.305 412.424C585.906 412.424 582.973 412.616 579.408 413.047C545.892 417.1 542.756 427.444 542.756 427.444C542.756 427.444 540.946 424.13 535.302 424.13C530.176 424.13 521.889 426.86 508.922 437.295Z" fill="#D8E6F6"/>
<path fill-rule="evenodd" clip-rule="evenodd" d="M597.738 435.136C604.795 432.294 613.213 427.898 602.135 426.475C599.965 429.812 598.549 433.017 597.738 435.136Z" fill="#E0EBF9"/>
<path fill-rule="evenodd" clip-rule="evenodd" d="M400.44 437.429C400.505 437.381 400.567 437.341 400.633 437.297L382.898 437.297L400.44 437.429Z" fill="#EBFCFF"/>
<path fill-rule="evenodd" clip-rule="evenodd" d="M382.896 437.297L400.631 437.297C415.906 426.957 411.372 424.315 402.744 424.315C393.733 424.315 380.262 427.201 380.262 427.201C379.525 425.838 377.98 425.279 375.944 425.279C366.606 425.279 346.901 437.025 346.901 437.025L382.896 437.297Z" fill="#D8E6F6"/>
<path fill-rule="evenodd" clip-rule="evenodd" d="M232.398 437.469L326.291 437.469C326.291 437.469 326.341 437.409 326.422 437.297L232.541 437.297C232.444 437.409 232.398 437.469 232.398 437.469Z" fill="#EBFCFF"/>
<path fill-rule="evenodd" clip-rule="evenodd" d="M232.54 437.297L326.421 437.296C327.259 436.169 331.453 430.002 322.949 430.002C321.249 430.002 319.048 430.246 316.213 430.83C316.213 430.83 321.57 423.688 316.831 420.874C309.022 430.874 297.069 437.269 283.675 437.269C270.207 437.269 258.2 430.802 250.391 420.706C239.666 428.863 233.532 436.093 232.54 437.297Z" fill="#D8E6F6"/>
<path fill-rule="evenodd" clip-rule="evenodd" d="M283.674 437.269C297.067 437.269 309.021 430.874 316.83 420.874C315.668 420.183 313.895 419.751 311.288 419.751C308.638 419.751 305.124 420.195 300.501 421.262L283.674 427.097C283.674 427.097 290.923 417.609 293.789 410.071C290.853 411.962 287.385 413.049 283.674 413.049C278.722 413.049 274.207 411.11 270.801 407.925C262.803 411.958 255.974 416.458 250.39 420.706C258.199 430.802 270.206 437.269 283.674 437.269Z" fill="#CCCCCC"/>
<path fill-rule="evenodd" clip-rule="evenodd" d="M283.674 413.046C287.386 413.046 290.854 411.959 293.789 410.068C295.682 405.105 295.67 400.984 290.429 400.984C288.139 400.984 284.852 401.771 280.295 403.614C276.969 404.957 273.802 406.407 270.802 407.922C274.208 411.108 278.723 413.046 283.674 413.046Z" fill="#EAEAEA"/>
<path fill-rule="evenodd" clip-rule="evenodd" d="M453.604 437.429L478.419 437.429C478.419 437.429 478.438 437.381 478.473 437.297L453.747 437.297C453.701 437.341 453.655 437.381 453.604 437.429Z" fill="#EBFCFF"/>
<path fill-rule="evenodd" clip-rule="evenodd" d="M453.748 437.296L478.473 437.296C478.523 437.164 478.604 436.949 478.689 436.677C472.707 435.654 467.146 433.34 462.279 430.022C459.885 431.909 457.061 434.303 453.748 437.296Z" fill="#D8E6F6"/>
<path fill-rule="evenodd" clip-rule="evenodd" d="M478.69 436.675C479.088 435.352 479.517 432.75 476.69 432.75C475.74 432.75 474.426 433.042 472.623 433.773C472.623 433.773 477.52 423.873 473.113 423.873C471.329 423.873 468.035 425.484 462.28 430.02C467.146 433.338 472.708 435.652 478.69 436.675Z" fill="#CCCCCC"/>
<path fill-rule="evenodd" clip-rule="evenodd" d="M394.208 140.221L395.425 145.128C395.425 145.128 406.045 136.224 405.96 136.052C405.879 135.876 404.029 132.705 403.234 132.966C402.434 133.226 395.803 135.876 395.803 136.052C395.803 136.224 394.208 140.221 394.208 140.221Z" fill="#EEC9C0"/>
<path fill-rule="evenodd" clip-rule="evenodd" d="M401.639 136.848C398.407 140.105 395.24 140.78 393.811 140.912C393.359 139.218 393.046 137.995 393.046 137.995C393.046 137.995 389.474 136.848 388.327 135.533C388.327 135.533 391.938 130.417 391.992 128.018C392.042 125.62 388.443 111.242 398.445 103.097C408.445 94.9527 414.388 109.562 414.388 109.562L418.629 124.685L424.453 133.83C424.453 133.83 423.063 142.103 415.118 147.919C407.178 153.734 398.418 151.512 396.932 150.8C396.568 150.628 395.503 147.051 394.576 143.722C399.751 141.88 401.639 136.848 401.639 136.848Z" fill="#E8AA82"/>
<path fill-rule="evenodd" clip-rule="evenodd" d="M399.78 127.566C399.355 128.321 398.393 128.593 397.625 128.174C396.86 127.756 396.582 126.804 397.007 126.049C397.431 125.294 398.393 125.022 399.158 125.441C399.926 125.86 400.204 126.811 399.78 127.566Z" fill="#1C1C1C"/>
<path fill-rule="evenodd" clip-rule="evenodd" d="M402.051 124.679C401.498 124.193 400.954 123.767 400.39 123.409C399.822 123.05 399.235 122.773 398.629 122.592C398.023 122.419 397.389 122.294 396.736 122.31L396.489 122.299C396.404 122.297 396.323 122.313 396.242 122.314L395.736 122.341C395.392 122.364 395.056 122.434 394.686 122.443C394.968 122.23 395.269 122.031 395.589 121.87C395.925 121.749 396.261 121.576 396.632 121.532C397.354 121.361 398.146 121.426 398.884 121.643C399.625 121.865 400.313 122.277 400.857 122.806C401.394 123.339 401.838 123.97 402.051 124.679Z" fill="#1C1C1C"/>
<path fill-rule="evenodd" clip-rule="evenodd" d="M412.762 116.641C412.762 116.641 416.273 119.72 417.149 133.869C417.829 144.844 426.708 146.627 426.531 146.567C426.353 146.507 424.036 122.459 423.588 121.648C423.14 120.837 420.154 111.686 419.687 111.455C419.22 111.223 413.175 115.307 412.839 115.408C412.503 115.509 412.762 116.641 412.762 116.641Z" fill="#023047"/>
<path fill-rule="evenodd" clip-rule="evenodd" d="M384.632 106.593C384.632 106.593 388.216 82.3 418.325 83.6153C448.438 84.931 447.45 121.073 447.45 121.073C447.45 121.073 448.662 147.258 430.642 147.254C430.642 147.254 418.437 148.065 418.437 132.309C418.437 117.072 413.961 117.072 413.961 117.072L384.632 106.593Z" fill="#A2D474"/>
<path fill-rule="evenodd" clip-rule="evenodd" d="M447.468 122.222C447.472 121.539 447.453 121.122 447.453 121.055C447.449 121.067 447.449 121.073 447.449 121.073C447.449 121.073 447.468 121.491 447.468 122.222ZM447.453 120.6C447.449 118.135 447.097 105.917 440.872 96.1755C440.872 96.1831 440.872 96.1907 440.872 96.1983C447.078 105.904 447.449 118.071 447.453 120.6Z" fill="#76DA9A"/>
<path fill-rule="evenodd" clip-rule="evenodd" d="M430.34 147.231C430.533 147.231 430.641 147.223 430.641 147.223C446.356 147.227 447.446 127.317 447.469 122.22C447.469 121.489 447.449 121.07 447.449 121.07C447.449 121.07 447.449 121.065 447.453 121.053C447.449 121.046 447.449 121.043 447.449 121.043C447.449 121.043 447.457 120.887 447.453 120.597C447.449 118.069 447.079 105.901 440.872 96.196C440.316 111.805 434.975 126.841 418.445 132.893C418.731 146.584 428.498 147.231 430.34 147.231Z" fill="#7AC246"/>
<path fill-rule="evenodd" clip-rule="evenodd" d="M427.676 137.405C427.676 139.355 429.201 140.938 431.09 140.938C432.975 140.938 434.504 139.355 434.504 137.405C434.504 135.454 432.975 133.872 431.09 133.872C429.201 133.872 427.676 135.454 427.676 137.405Z" fill="#023047"/>
<path fill-rule="evenodd" clip-rule="evenodd" d="M413.961 117.072C413.046 116.745 390.085 114.911 379.298 114.064C377.456 113.919 376.811 111.462 378.325 110.368L384.632 105.816L413.961 117.072Z" fill="black"/>
<path fill-rule="evenodd" clip-rule="evenodd" d="M413.961 117.072C412.937 116.705 390.51 109.022 384.056 106.811C383.129 106.493 382.662 105.421 383.048 104.489L383.913 102.381C384.3 101.442 385.385 101.05 386.25 101.537L413.961 117.072Z" fill="#023047"/>
<path fill-rule="evenodd" clip-rule="evenodd" d="M369.055 240.318C369.055 240.318 361.447 235.526 358.141 235.526C354.835 235.526 347.887 237.58 347.887 241.005C347.887 244.427 349.872 246.481 349.872 246.481L356.588 252.476C356.588 252.476 359.794 255.038 361.119 253.667C362.439 252.3 366.41 254.011 372.956 250.262C379.386 246.581 373.354 244.427 372.361 243.399C371.369 242.372 369.055 240.318 369.055 240.318Z" fill="#E8AA82"/>
<path fill-rule="evenodd" clip-rule="evenodd" d="M347.985 245.379C347.985 249.399 351.136 252.661 355.022 252.661C358.911 252.661 362.059 249.399 362.059 245.379C362.059 241.358 358.911 238.097 355.022 238.097C351.136 238.097 347.985 241.358 347.985 245.379Z" fill="black"/>
<path fill-rule="evenodd" clip-rule="evenodd" d="M31.1558 446.049L767.28 446.049C768.965 446.049 770.33 444.634 770.33 442.891L770.33 440.461C770.33 438.719 768.965 437.308 767.28 437.308L31.1558 437.308C29.472 437.308 28.1048 438.719 28.1048 440.462L28.1048 442.892C28.1048 444.634 29.472 446.049 31.1558 446.049Z" fill="#61BDF2"/>
<path fill-rule="evenodd" clip-rule="evenodd" d="M173.158 390.194C181.16 390.346 189.051 388.08 195.751 383.556C201.139 379.918 206.191 374.563 207.125 367.005C209.257 349.735 199.644 350.307 197.285 343.26C194.929 336.218 201.923 333.065 198.903 320.235C197.281 313.345 192.148 310.359 184.146 299.284C176.143 288.21 166.449 282.534 159.374 286.663C152.298 290.791 152.584 299.676 147.324 302.634C142.06 305.591 133.976 315.915 137.062 335.547C140.144 355.179 119.285 347.857 127.449 370.57C133.432 387.225 159.613 389.934 173.158 390.194Z" fill="#2865AA"/>
<path fill-rule="evenodd" clip-rule="evenodd" d="M163.635 375.347C164.381 386.258 165.47 429.698 163.886 433.471C161.53 439.103 173.897 432.088 173.897 432.088C173.897 432.088 170.61 406.154 168.706 393.484C167.86 387.845 166.304 370.883 166.292 369.404C166.354 369.272 166.424 369.136 166.489 369.004C169.251 363.612 175.013 358.009 183.487 354.784C176.979 356.486 170.869 359.888 166.393 365.139C166.524 363.241 166.771 361.734 167.161 360.763C168.405 357.649 170.583 353.952 176.666 349.304C177.906 348.365 179.203 347.502 180.567 346.754C181.25 346.379 181.953 346.043 182.668 345.735C183.386 345.435 184.124 345.18 184.877 344.96C184.105 345.072 183.332 345.224 182.567 345.423C181.81 345.631 181.053 345.871 180.308 346.151C178.825 346.71 177.381 347.406 175.982 348.189C175.098 348.689 174.233 349.22 173.372 349.792C177.025 342.35 180.613 331.459 179.134 316.975C179.134 316.975 178.721 326.711 176.4 335.599C176.017 334.157 175.492 332.778 174.882 331.451C173.507 328.601 172.731 327.558 171.514 325.827C171.078 325.252 170.626 324.692 170.185 324.125C170.56 324.744 170.938 325.356 171.305 325.975C172.286 327.802 172.924 328.913 173.939 331.85C174.376 333.205 174.723 334.584 174.916 335.971C175.206 338.301 175.048 340 175.048 340C174.588 341.271 174.078 342.478 173.511 343.585C169.888 350.667 165.504 355.759 163.639 359.908C162.94 358.561 162.229 357.222 161.507 355.895C159.958 353.053 158.367 350.243 156.714 347.474C156.444 347.026 156.174 346.578 155.903 346.131C155.25 344.14 154.853 341.79 154.644 339.784C154.385 337.238 154.378 335.839 154.42 333.729C154.169 335.795 154.03 337.206 154.034 339.82C154.038 340.843 154.084 341.866 154.161 342.889C154.177 343.057 154.192 343.229 154.208 343.397L154.181 343.353C153.316 341.994 152.439 340.639 151.527 339.316C150.616 337.989 149.681 336.678 148.7 335.408C147.719 334.137 146.688 332.902 145.576 331.759C146.611 332.978 147.553 334.273 148.445 335.603C149.334 336.934 150.179 338.297 150.994 339.68C151.813 341.055 152.597 342.458 153.362 343.869C154.13 345.275 154.876 346.698 155.606 348.129C155.698 348.313 155.791 348.497 155.884 348.681C155.575 348.597 155.108 348.465 154.111 348.237C150.322 347.378 147.213 347.138 144.444 346.962C147.016 347.382 150.118 347.909 153.872 349.152C154.787 349.46 155.772 349.816 156.652 350.207C157.738 352.39 158.784 354.592 159.808 356.806C160.48 358.265 161.14 359.728 161.781 361.198C162.036 361.794 162.415 362.35 162.542 362.981C163.013 365.291 163.635 375.347 163.635 375.347Z" fill="black"/>
<path fill-rule="evenodd" clip-rule="evenodd" d="M761.102 437.429C761.102 437.429 753.872 426.119 740.705 428.545C740.705 428.545 733.455 412.61 713.334 412.426C692.94 412.238 689.067 426.938 689.067 426.938C689.067 426.938 683.257 421.866 670.09 427.074C656.922 432.286 652.275 441.678 652.275 441.678L761.102 437.429Z" fill="#61BDF2"/>
<path fill-rule="evenodd" clip-rule="evenodd" d="M87.3694 418.661C87.3694 418.661 88.2075 404.233 100.342 405.568C100.342 405.568 116.865 378.314 134.167 416.791C134.167 416.791 149.785 408.054 155.528 427.05C155.528 427.05 165.149 408.505 178.833 414.652C192.516 420.795 197.186 437.673 197.186 437.673L96.1867 439.9L87.3694 418.661Z" fill="#669CDF"/>
<path fill-rule="evenodd" clip-rule="evenodd" d="M111.335 353.217C118.916 349.205 125.289 342.518 127.568 334.357C129.765 326.491 128.062 318.134 126.216 310.181C125.409 306.699 124.59 302.966 125.899 299.637C126.718 297.563 128.278 295.88 129.7 294.15C141.95 279.214 144.743 258.699 143.194 239.578C142.761 234.275 141.993 228.855 139.444 224.159C136.895 219.463 132.233 215.566 126.83 215.198C118.48 214.631 110.528 222.268 102.576 219.703C96.8791 217.86 94.0056 211.525 88.8419 208.532C84.5009 206.014 79.1403 206.162 74.1079 206.385C72.5206 206.457 70.8984 206.533 69.4308 207.129C66.1055 208.48 64.4062 212.085 63.3518 215.466C61.6409 220.93 60.7989 226.629 59.0841 232.092C57.3655 237.556 54.6272 242.944 50.0004 246.413C46.2888 249.198 41.6813 250.521 37.4948 252.56C27.1481 257.608 19.6169 266.964 14.0284 276.9C12.3561 279.869 10.8151 282.951 9.96157 286.24C7.27352 296.596 12.4604 308.418 21.9651 313.61C25.499 315.54 29.4769 316.603 32.9992 318.558C41.0672 323.038 45.7674 331.535 50.3904 339.429C55.0096 347.326 60.575 355.551 69.2764 358.693C81.1679 362.989 100.529 358.941 111.335 353.217Z" fill="#2865AA"/>
<path fill-rule="evenodd" clip-rule="evenodd" d="M27.4589 300.83C29.3436 300.55 31.2399 300.406 33.1362 300.315C35.0325 300.239 36.9327 300.247 38.8329 300.311C39.3543 300.327 39.8718 300.351 40.3893 300.379C37.9716 299.183 35.5925 297.845 33.3332 296.214C30.8885 294.439 28.5595 292.313 26.7405 289.583C28.7024 292.137 31.1086 294.016 33.6035 295.538C36.11 297.061 38.7324 298.236 41.3896 299.247C43.8304 300.171 46.2945 300.954 48.7818 301.673C48.411 300.994 48.0673 300.291 47.7545 299.571C47.0554 297.972 46.4915 296.29 46.0744 294.559C45.6496 292.829 45.383 291.046 45.2556 289.26C45.1358 287.473 45.1552 285.683 45.3136 283.92C45.2981 285.694 45.4217 287.461 45.6766 289.184C45.9431 290.906 46.337 292.589 46.8739 294.184C47.403 295.782 48.0672 297.297 48.8358 298.704C49.222 299.407 49.6353 300.083 50.0717 300.722C50.4193 301.226 51.072 302.153 51.5123 302.441C53.5515 303 55.6023 303.532 57.6531 304.071C64.1762 305.822 73.3798 308.048 83.4831 316.989C83.908 311.761 84.3675 305.774 84.6842 301.582C84.9546 298.016 84.7537 294.415 84.0856 290.934L84.074 290.882C83.3749 287.293 82.6411 283.708 81.8842 280.131C80.7294 274.707 79.5206 269.3 78.2422 263.916C75.67 252.606 76.2687 251.127 76.0446 248.557C75.9828 247.861 75.9751 247.158 76.033 246.459C76.0369 246.423 76.0408 246.387 76.0446 246.355C76.2262 244.009 76.4656 241.683 76.7861 239.376C77.6126 233.509 78.3116 230.408 79.4394 225.803C78.6901 230.548 78.2537 233.701 77.9139 239.552C77.7825 241.85 77.7362 244.156 77.744 246.451C77.744 247.602 77.7748 248.745 77.8173 249.888C77.8405 250.455 77.8636 251.027 77.9023 251.59C77.9177 251.874 77.9371 252.158 77.9603 252.438C77.9718 252.606 78.8794 256.65 79.2232 257.777C81.3589 264.724 83.3595 271.738 85.2713 278.796C86.1673 282.101 87.0363 285.423 87.8821 288.756C87.8821 288.756 88.3108 290.303 88.7588 293.236C88.9596 292.593 90.6242 287.825 91.4314 285.858C95.5098 275.942 99.6114 267.473 106.393 257.298C108.996 253.393 109.34 253.017 112.785 248.385C108.51 254.896 109.765 252.909 106.849 257.765C100.658 268.317 96.9697 277.098 93.4667 287.077C92.1922 291.034 91.5241 293.032 90.2341 298.244C90.0796 298.872 89.9251 299.499 89.7938 300.135C89.7166 300.49 89.6393 300.842 89.5621 301.198C89.844 306.106 89.6625 311.038 89.1063 315.906C88.8785 317.892 86.6385 353.559 86.3797 366.632C85.8004 396.012 90.8096 429.257 90.8096 429.257C90.8096 429.257 60.7775 438.941 66.8797 427.239C70.9697 419.393 80.7989 348.499 82.9346 323.575C82.7724 323.392 82.6141 323.208 82.4519 323.024C73.3218 312.796 63.8287 309.463 57.0931 307.017C53.9879 305.898 50.8558 304.795 47.7506 303.58L47.7545 303.58C45.9238 303.2 40.6133 302.185 38.7518 301.941C36.8825 301.697 35.0093 301.51 33.1323 301.406C31.2553 301.314 29.3744 301.274 27.4936 301.374C25.6166 301.486 23.7358 301.705 21.882 302.157C23.7049 301.53 25.578 301.126 27.4589 300.83Z" fill="black"/>
<path fill-rule="evenodd" clip-rule="evenodd" d="M32.9568 437.428C32.9568 437.428 40.1867 426.118 53.3528 428.544C53.3528 428.544 60.602 412.609 80.7237 412.425C101.12 412.237 104.99 426.937 104.99 426.937C104.99 426.937 110.798 421.865 123.968 427.073C137.134 432.285 141.784 441.677 141.784 441.677L32.9568 437.428Z" fill="#61BDF2"/>
</svg>
